<svg width="512" height="512" viewBox="0 0 512 512" fill="none" xmlns="http://www.w3.org/2000/svg">
<g clip-path="url(#clip0)">
<path d="M493.35 251.628C487.295 250.442 481.143 251.682 476.023 255.122C471.782 257.972 468.67 262.049 467.052 266.805L440.74 255.315C440.794 253.514 440.821 251.739 440.821 250.011C440.821 234.541 438.885 219.18 435.063 204.299L446.866 196.293C454.347 202.845 465.219 204.804 474.738 200.669C487.547 195.103 493.682 180.28 488.704 166.924L483.148 152.013C478.111 138.493 463.621 131.369 450.163 135.786C443.352 138.023 437.871 142.794 434.731 149.221C432.945 152.876 432.044 156.797 432.042 160.737L418.652 162.607C416.817 159.244 414.813 155.836 412.673 152.441C410.46 148.93 405.817 147.879 402.308 150.092C398.796 152.305 397.744 156.946 399.958 160.457C402.484 164.464 404.798 168.479 406.837 172.392C408.884 176.316 413.201 178.542 417.57 177.933L441.716 174.562C443.957 174.249 445.938 172.944 447.108 171.008C448.278 169.072 448.515 166.711 447.751 164.582C446.714 161.692 446.887 158.581 448.234 155.821C449.579 153.07 451.929 151.027 454.852 150.067C460.521 148.207 466.893 151.434 469.064 157.262L474.62 172.173C476.77 177.944 474.136 184.544 468.747 186.887C463.589 189.127 457.515 187.206 454.612 182.42C453.545 180.659 451.8 179.414 449.789 178.975C447.778 178.535 445.673 178.943 443.969 180.098L423.942 193.682C420.226 196.201 418.535 200.807 419.733 205.144C423.753 219.7 425.791 234.797 425.791 250.012C425.791 252.505 425.728 255.11 425.606 257.757C425.406 262.067 427.925 266.121 431.87 267.844L469.418 284.241C471.506 285.153 473.896 285.068 475.913 284.011C477.932 282.954 479.361 281.038 479.8 278.802L480.99 272.74C481.405 270.626 482.618 268.801 484.406 267.599C486.192 266.398 488.341 265.964 490.455 266.38C494.819 267.236 497.672 271.482 496.817 275.845L490.659 307.225C490.23 309.409 488.961 311.272 487.083 312.47C485.207 313.668 482.977 314.03 480.804 313.499C476.695 312.49 474.055 308.09 474.918 303.69L475.082 302.851C475.525 300.587 474.905 298.246 473.399 296.499C471.893 294.751 469.651 293.785 467.365 293.898L426.749 295.751C422.45 295.946 418.647 298.83 417.288 302.93C413.526 314.291 408.532 325.268 402.443 335.554C400.176 339.384 400.574 344.24 403.432 347.637L421.4 368.982C422.735 370.569 424.666 371.532 426.734 371.647C428.803 371.759 430.829 371.015 432.329 369.588C436.357 365.757 442.48 365.429 446.889 368.803C449.275 370.629 450.806 373.274 451.203 376.252C451.6 379.23 450.811 382.184 448.987 384.57L443.78 391.374C440.04 396.261 433.054 397.518 428.207 394.178C424.088 391.339 422.326 386.049 423.924 381.312C425.168 377.624 423.389 373.596 419.824 372.031L393.94 360.662C389.824 358.851 385.02 359.874 381.981 363.208C370.44 375.881 357.113 386.679 342.368 395.301C338.644 397.476 336.611 401.79 337.306 406.036L343.932 446.441C344.301 448.689 345.67 450.649 347.655 451.769C349.64 452.89 352.023 453.048 354.141 452.202L359.874 449.908C361.941 449.081 364.196 449.135 366.222 450.061C368.247 450.985 369.764 452.659 370.497 454.775C371.882 458.772 369.621 463.381 365.456 465.046L336.176 476.759C334.109 477.587 331.855 477.532 329.828 476.607C327.804 475.683 326.286 474.009 325.552 471.894C324.168 467.897 326.428 463.288 330.589 461.623L331.382 461.306C333.524 460.45 335.154 458.657 335.803 456.444C336.451 454.23 336.048 451.841 334.708 449.964L311.085 416.865C308.586 413.361 304.098 411.735 299.926 412.817C286.153 416.387 271.916 418.198 257.607 418.198C246.278 418.198 234.92 417.054 223.852 414.797C219.626 413.937 215.235 415.793 212.918 419.421L189.273 456.505C188.048 458.426 187.761 460.799 188.494 462.958C189.224 465.116 190.896 466.826 193.037 467.606L193.874 467.912C196.744 468.958 199.036 471.06 200.325 473.831C201.615 476.6 201.748 479.707 200.702 482.578C200.401 483.403 200.247 484.274 200.247 485.152C200.247 487.995 199.409 490.148 197.886 491.213C196.364 492.28 194.055 492.332 191.383 491.356L162.336 480.764C156.52 478.644 153.423 472.158 155.432 466.306C156.391 463.517 158.456 461.248 161.245 459.918C164.192 458.512 167.618 458.338 170.641 459.44L171.306 459.682C173.472 460.474 175.882 460.224 177.842 459.008C179.803 457.791 181.096 455.742 181.349 453.45L186.163 409.99C186.637 405.713 184.381 401.512 180.549 399.534C162.979 390.459 147.258 378.457 133.828 363.865C130.872 360.651 126.179 359.602 122.149 361.256L86.7028 375.792C84.7358 376.599 83.2028 378.2 82.4833 380.2C81.7629 382.2 81.9242 384.411 82.9252 386.286C85.1747 390.495 83.8571 395.65 79.861 398.277C75.7418 400.988 69.9742 399.72 67.0083 395.451L57.9291 382.382C55.0173 378.191 55.7107 372.565 59.5073 369.573C61.4702 368.026 63.9061 367.348 66.361 367.664C68.835 367.982 71.0233 369.251 72.5254 371.237C73.8841 373.035 75.9783 374.128 78.2308 374.215C80.4753 374.301 82.6546 373.373 84.1476 371.685L109.114 343.466C112.044 340.155 112.569 335.325 110.419 331.443C107.735 326.601 105.238 321.503 102.999 316.289C101.36 312.476 96.9423 310.712 93.1276 312.35C89.314 313.988 87.5505 318.407 89.1877 322.221C91.1948 326.891 93.3922 331.48 95.7389 335.9L77.857 356.114C74.9813 354.35 71.7368 353.2 68.2808 352.755C61.7808 351.92 55.366 353.7 50.2046 357.766C40.1755 365.67 38.1475 380.249 45.5874 390.956L54.6666 404.025C62.2427 414.931 77.2488 417.984 88.1216 410.833C96.2529 405.486 100.172 396.158 98.804 387.072L124.936 376.354C138.357 390.446 153.788 402.225 170.882 411.424L167.307 443.706C163.017 443.584 158.7 444.476 154.774 446.348C148.313 449.431 143.499 454.782 141.218 461.421C136.567 474.965 143.731 489.976 157.188 494.883L186.234 505.474C189.149 506.537 192.078 507.062 194.899 507.062C199.147 507.062 203.152 505.87 206.504 503.525C211.762 499.845 214.907 493.678 215.247 486.467C217.196 480.182 216.749 473.49 213.952 467.483C212.159 463.631 209.529 460.339 206.274 457.797L223.921 430.12C249.262 434.834 275.685 434.141 300.658 428.123L317.806 452.15C311.056 458.258 308.253 467.871 311.35 476.813C313.442 482.848 317.787 487.629 323.584 490.278C329.302 492.888 335.923 493.046 341.758 490.713L371.04 479C382.739 474.32 388.74 461.517 384.7 449.854C382.609 443.819 378.264 439.037 372.466 436.389C367.71 434.216 362.323 433.74 357.287 434.989L352.643 406.673C366.709 398.123 379.546 387.732 390.869 375.729L408.356 383.409C407.867 392.392 412.033 401.285 419.679 406.555C431.212 414.502 447.042 411.844 455.717 400.509L460.924 393.704C465.189 388.13 467.029 381.228 466.103 374.27C465.177 367.312 461.598 361.131 456.023 356.865C447.89 350.642 437.272 349.804 428.53 354.112L416.999 340.412C422.388 330.923 426.934 320.928 430.546 310.622L460.022 309.278C461.484 318.263 468.031 325.838 477.221 328.095C483.424 329.619 489.8 328.566 495.171 325.138C500.468 321.756 504.199 316.282 505.409 310.116L511.566 278.737C514.017 266.241 505.846 254.08 493.35 251.628V251.628Z" fill="#00C893"/>
<path d="M48.419 271.928L76.5875 278.434C77.2007 282.351 77.9592 286.328 78.851 290.295C79.6356 293.79 82.7378 296.166 86.1767 296.165C86.7218 296.165 87.2759 296.104 87.83 295.98C91.8791 295.07 94.4252 291.051 93.5154 287.001C92.4803 282.388 91.6396 277.768 91.0184 273.269C90.4262 268.987 87.2057 265.458 83.0063 264.489L43.1114 255.276C40.8939 254.764 38.5573 255.286 36.7687 256.695C34.9791 258.106 33.926 260.253 33.9059 262.531L33.8649 267.201C33.8178 272.43 29.5262 276.684 24.2967 276.684C21.8067 276.684 19.469 275.711 17.7165 273.942C15.963 272.172 15.0101 269.828 15.0321 267.338L15.2926 238.356C15.3157 235.698 16.4449 233.098 18.3898 231.222C20.2175 229.459 22.5271 228.513 24.967 228.585C30.0432 228.719 34.1514 232.964 34.1234 238.047C34.1103 240.349 35.1534 242.53 36.954 243.965C38.7547 245.401 41.1154 245.932 43.3539 245.405L82.9683 236.116C87.1647 235.132 90.3711 231.594 90.9492 227.312C93.8721 205.635 100.905 185.029 111.852 166.063C114.061 162.233 113.626 157.401 110.765 154.039L91.8741 131.852C90.3971 130.119 88.2258 129.145 85.9352 129.212C83.6576 129.278 81.5324 130.373 80.1576 132.19L78.5203 134.354C77.2969 135.971 75.5133 136.989 73.4973 137.22C71.4882 137.45 69.5133 136.859 67.9472 135.555C64.9872 133.089 64.5884 128.425 67.0584 125.16L79.6416 108.522C82.0845 105.293 86.6997 104.652 89.9292 107.096C92.9533 109.382 93.7278 113.678 91.6937 116.875C90.5134 118.732 90.2058 121.011 90.8521 123.115C91.4983 125.218 93.0334 126.932 95.0515 127.805L121.467 139.23C125.563 141.003 130.343 139.974 133.363 136.668C145.389 123.494 159.329 112.368 174.8 103.599C178.548 101.472 180.637 97.1878 180 92.9332L173.914 52.4441C173.576 50.1906 172.232 48.2126 170.263 47.0663C168.292 45.919 165.907 45.7286 163.784 46.5463L158.02 48.7637C155.941 49.5613 153.689 49.4782 151.676 48.5262C149.664 47.5753 148.169 45.8809 147.465 43.7557C146.133 39.7396 148.454 35.1635 152.642 33.5532L182.077 22.2316C184.155 21.432 186.408 21.5171 188.421 22.469C190.433 23.4199 191.929 25.1143 192.633 27.2396C193.964 31.2556 191.642 35.8318 187.455 37.443L186.659 37.7497C184.507 38.5783 182.853 40.3489 182.175 42.5533C181.498 44.7577 181.868 47.1515 183.184 49.0463L206.357 82.4512C208.807 85.9843 213.267 87.6707 217.455 86.6456C230.515 83.4472 244.024 81.825 257.623 81.825H257.627C262.061 81.825 266.036 79.0304 267.518 74.875L275.19 53.406C275.879 51.4802 275.753 49.3559 274.84 47.5262C273.928 45.6956 272.31 44.3148 270.357 43.7046C264.77 41.9571 261.215 36.4701 261.905 30.6584C262.273 27.5662 263.897 24.7516 266.478 22.7326C269.188 20.6123 272.656 19.6374 275.998 20.0592L286.535 21.3859C293.365 22.2456 298.34 28.2867 297.625 34.8518C297.073 39.92 293.525 44.0302 288.586 45.3228C284.969 46.2697 282.597 49.7327 283.023 53.4481L285.69 76.7127C286.198 81.1526 289.478 84.7819 293.856 85.7448C310.642 89.4322 326.727 95.6817 341.66 104.317C345.4 106.481 350.16 106.109 353.505 103.393L385.298 77.5865C387.068 76.1506 388.089 73.9893 388.077 71.7107C388.064 69.4331 387.019 67.2828 385.235 65.866L380.398 62.0253C378.655 60.6415 377.583 58.6575 377.38 56.4381C377.179 54.2227 377.878 52.0744 379.352 50.388C382.135 47.2006 387.256 46.8779 390.771 49.6665L415.471 69.2768C417.214 70.6606 418.286 72.6446 418.489 74.863C418.69 77.0785 417.991 79.2268 416.517 80.9141C413.733 84.0995 408.609 84.4222 405.1 81.6366L404.433 81.1075C402.626 79.6717 400.259 79.1466 398.018 79.6817C395.773 80.2168 393.899 81.7528 392.934 83.848L375.905 120.814C374.105 124.724 374.921 129.425 377.934 132.513C379.002 133.607 380.058 134.739 381.313 136.103C384.124 139.157 388.878 139.353 391.932 136.542C394.986 133.73 395.182 128.976 392.371 125.922C391.84 125.344 391.34 124.803 390.855 124.285L403.223 97.4373C411.875 100.267 421.611 97.9313 427.836 90.804C432.039 85.9933 434.035 79.848 433.456 73.5003C432.885 67.2417 429.736 61.4131 424.815 57.5072L400.116 37.8979C390.247 30.0632 376.155 31.2045 368.033 40.5022C363.83 45.3128 361.834 51.4581 362.413 57.8058C362.888 63.0143 365.148 67.9261 368.731 71.6786L346.46 89.7599C331.911 81.6747 316.396 75.6416 300.26 71.7929L298.608 57.377C306.247 53.1525 311.604 45.3729 312.573 36.4801C314.17 21.8127 303.333 8.35274 288.418 6.47398L277.881 5.14732C270.6 4.23148 263.068 6.32568 257.225 10.8938C251.466 15.3979 247.829 21.7877 246.986 28.8869C245.759 39.2076 250.521 49.0693 258.791 54.6465L254.439 66.8219C241.775 67.0383 229.189 68.5504 216.936 71.3269L200.118 47.0824C206.947 41.0663 209.88 31.4921 206.903 22.5101C204.892 16.447 200.611 11.6073 194.849 8.8818C189.168 6.19542 182.549 5.94792 176.684 8.20344L147.25 19.5241C135.487 24.0472 129.316 36.7687 133.201 48.4852C135.211 54.5483 139.491 59.388 145.253 62.1135C149.981 64.349 155.356 64.8971 160.412 63.7157L164.677 92.0905C149.838 100.839 136.339 111.607 124.477 124.154L107.51 116.816C108.889 108.783 105.82 100.267 98.9984 95.1066C94.2318 91.5014 88.349 89.9653 82.4272 90.7899C76.5073 91.6106 71.2618 94.6888 67.6576 99.4553L55.0734 116.093C47.7096 125.826 49.1395 139.447 58.3279 147.102C63.0824 151.063 69.0774 152.857 75.2137 152.152C79.0825 151.708 82.7578 150.246 85.8661 147.979L97.2499 161.35C86.7308 180.325 79.7598 200.766 76.4993 222.195L47.42 229.014C43.8899 220.204 35.3488 213.823 25.3648 213.56C18.8648 213.397 12.7054 215.82 7.95192 220.407C3.12625 225.064 0.322635 231.556 0.261513 238.219L0.000990911 267.203C-0.0571255 273.734 2.44288 279.885 7.0391 284.523C11.6353 289.161 17.7646 291.716 24.2957 291.716C36.1695 291.717 46.1645 283.184 48.419 271.928V271.928Z" fill="#00C893"/>
<path d="M220.404 230.905C224.07 228.962 225.468 224.413 223.524 220.745C221.581 217.08 217.034 215.679 213.364 217.625C195.405 227.144 174.935 224.628 164.697 211.638C158.953 204.351 156.977 194.695 159.133 184.45C161.393 173.706 167.858 163.675 177.336 156.205C186.812 148.734 198.077 144.796 209.05 145.101C219.516 145.396 228.443 149.573 234.188 156.86C242.814 167.803 242.704 184.137 233.909 198.473C231.738 202.011 232.846 206.638 236.385 208.808C239.922 210.979 244.549 209.871 246.719 206.333C258.846 186.57 258.559 163.499 245.991 147.556C237.441 136.708 224.472 130.5 209.475 130.078C194.982 129.657 180.268 134.755 168.032 144.401C155.793 154.048 147.41 167.172 144.424 181.354C141.334 196.036 144.342 210.096 152.892 220.943C161.895 232.364 175.993 238.372 191.159 238.371C200.821 238.371 210.917 235.934 220.404 230.905V230.905Z" fill="#0E2C7A"/>
<path d="M366.224 163.509C366.224 147.928 351.725 135.253 333.903 135.253C316.081 135.253 301.581 147.928 301.581 163.509C301.581 179.089 316.081 191.764 333.903 191.764C351.725 191.764 366.224 179.089 366.224 163.509ZM316.612 163.509C316.612 156.216 324.369 150.283 333.904 150.283C343.438 150.283 351.195 156.216 351.195 163.509C351.195 170.801 343.438 176.734 333.904 176.734C324.369 176.734 316.612 170.801 316.612 163.509Z" fill="#0E2C7A"/>
<path d="M279.014 292.668C279.014 273.574 263.48 258.04 244.386 258.04C225.29 258.04 209.756 273.574 209.756 292.668C209.756 311.763 225.29 327.297 244.386 327.297C263.48 327.297 279.014 311.763 279.014 292.668ZM224.787 292.668C224.787 281.862 233.579 273.07 244.387 273.07C255.192 273.07 263.985 281.862 263.985 292.668C263.985 303.475 255.193 312.267 244.387 312.267C233.579 312.267 224.787 303.475 224.787 292.668V292.668Z" fill="#0E2C7A"/>
<path d="M376.984 278.543C376.984 263.694 364.904 251.614 350.055 251.614C335.208 251.614 323.128 263.694 323.128 278.543C323.128 293.392 335.208 305.472 350.055 305.472C364.904 305.471 376.984 293.392 376.984 278.543ZM338.157 278.543C338.157 271.982 343.494 266.644 350.054 266.644C356.616 266.644 361.953 271.982 361.953 278.543C361.953 285.104 356.616 290.442 350.054 290.442C343.495 290.441 338.157 285.104 338.157 278.543Z" fill="#0E2C7A"/>
<path d="M278.36 399.67C292.91 399.67 304.749 387.832 304.749 373.281C304.749 358.731 292.911 346.892 278.36 346.892C263.809 346.892 251.97 358.73 251.97 373.281C251.97 387.832 263.808 399.67 278.36 399.67ZM278.36 361.922C284.623 361.922 289.719 367.017 289.719 373.281C289.719 379.545 284.623 384.64 278.36 384.64C272.096 384.64 267 379.545 267 373.281C267 367.017 272.096 361.922 278.36 361.922Z" fill="#0E2C7A"/>
<path d="M160.261 355.31C175.246 355.31 187.438 343.119 187.438 328.134C187.438 313.149 175.246 300.957 160.261 300.957C145.276 300.957 133.085 313.149 133.085 328.134C133.085 343.119 145.276 355.31 160.261 355.31ZM160.261 315.987C166.96 315.987 172.407 321.436 172.407 328.134C172.407 334.831 166.959 340.28 160.261 340.28C153.564 340.28 148.115 334.831 148.115 328.134C148.115 321.436 153.564 315.987 160.261 315.987Z" fill="#0E2C7A"/>
<path d="M313.291 234.082C313.291 229.932 309.927 226.567 305.776 226.567H299.132C294.981 226.567 291.617 229.932 291.617 234.082C291.617 238.232 294.981 241.597 299.132 241.597H305.776C309.927 241.597 313.291 238.232 313.291 234.082Z" fill="#0E2C7A"/>
<path d="M210.447 372.96H217.272C221.424 372.96 224.787 369.596 224.787 365.445C224.787 361.295 221.424 357.93 217.272 357.93H210.447C206.295 357.93 202.932 361.295 202.932 365.445C202.932 369.596 206.296 372.96 210.447 372.96Z" fill="#0E2C7A"/>
<path d="M147.175 263.519C151.326 263.519 154.69 260.154 154.69 256.004C154.69 251.854 151.326 248.489 147.175 248.489H140.6C136.448 248.489 133.085 251.854 133.085 256.004C133.085 260.154 136.448 263.519 140.6 263.519H147.175Z" fill="#0E2C7A"/>
<path d="M280.649 132.039C284.801 132.039 288.164 128.674 288.164 124.524C288.164 120.373 284.801 117.008 280.649 117.008H271.499C267.348 117.008 263.984 120.373 263.984 124.524C263.984 128.674 267.348 132.039 271.499 132.039H280.649Z" fill="#0E2C7A"/>
<path d="M330.642 333.465C326.49 333.465 323.127 336.83 323.127 340.98C323.127 345.131 326.49 348.495 330.642 348.495H340.746C344.897 348.495 348.261 345.131 348.261 340.98C348.261 336.83 344.897 333.465 340.746 333.465H330.642Z" fill="#0E2C7A"/>
</g>
<defs>
<clipPath id="clip0">
<rect width="512" height="512" fill="white"/>
</clipPath>
</defs>
</svg>
